<?xml version="1.0" encoding="utf-8"?>
<!-- Generator: Adobe Illustrator 22.0.1, SVG Export Plug-In . SVG Version: 6.00 Build 0)  -->
<svg version="1.1" id="레이어_1" xmlns="http://www.w3.org/2000/svg" xmlns:xlink="http://www.w3.org/1999/xlink" x="0px"
	 y="0px" viewBox="0 0 134 18" style="enable-background:new 0 0 134 18;" xml:space="preserve">
<style type="text/css">
	.st0{fill:#FFFFFF;stroke:#FFFFFF;stroke-width:0.3;stroke-miterlimit:10;}
</style>
<g>
	<g>
		<path class="st0" d="M74.2,2.6c-0.5-0.5-1.2-0.9-2-0.9c-1.5,0-2.6,1.3-2.6,2.7s1.2,2.7,2.6,2.7c0.7,0,1.5-0.3,2-0.9v0.9
			c-0.6,0.4-1.3,0.6-1.9,0.6c-1.8,0-3.4-1.5-3.4-3.3c0-1.9,1.5-3.4,3.4-3.4c0.7,0,1.4,0.2,1.9,0.6V2.6z"/>
		<path class="st0" d="M82.9,4.5c0,1.9-1.5,3.4-3.4,3.4s-3.4-1.5-3.4-3.4s1.5-3.4,3.4-3.4C81.3,1.1,82.9,2.6,82.9,4.5z M76.8,4.4
			c0,1.5,1.2,2.7,2.7,2.7s2.7-1.2,2.7-2.7S81,1.7,79.5,1.7C78,1.8,76.8,3,76.8,4.4z"/>
		<path class="st0" d="M104.7,2.6c-0.5-0.5-1.2-0.9-2-0.9c-1.5,0-2.6,1.3-2.6,2.7s1.2,2.7,2.6,2.7c0.7,0,1.5-0.3,2-0.9v0.9
			c-0.6,0.4-1.3,0.6-1.9,0.6c-1.8,0-3.4-1.5-3.4-3.3c0-1.9,1.5-3.4,3.4-3.4c0.7,0,1.4,0.2,1.9,0.6V2.6z"/>
		<path class="st0" d="M85.7,7h1.8v0.7H85V1.2h0.7V7z"/>
		<path class="st0" d="M90.4,7h1.8v0.7h-2.5V1.2h0.7V7z"/>
		<path class="st0" d="M94.2,1.2h3.4v0.7H95v1.9h2.6v0.7H95V7h2.7v0.7h-3.4L94.2,1.2L94.2,1.2z"/>
		<path class="st0" d="M108.7,7.7H108V1.9h-1.6V1.2h3.9v0.7h-1.6C108.7,1.9,108.7,7.7,108.7,7.7z"/>
		<path class="st0" d="M112.7,7.7H112V1.2h0.7V7.7z"/>
		<path class="st0" d="M121.5,4.5c0,1.9-1.5,3.4-3.4,3.4s-3.4-1.5-3.4-3.4s1.5-3.4,3.4-3.4C120,1.1,121.5,2.6,121.5,4.5z M115.4,4.4
			c0,1.5,1.2,2.7,2.7,2.7s2.7-1.2,2.7-2.7s-1.2-2.7-2.7-2.7C116.6,1.8,115.4,3,115.4,4.4z"/>
		<path class="st0" d="M123.5,0.9l5.1,5.3v-5h0.7V8l-5.1-5.3v5h-0.7C123.5,7.7,123.5,0.9,123.5,0.9z"/>
		<g>
			<path class="st0" d="M131.4,3.2c-0.6,0-1.1-0.5-1.1-1.1s0.5-1.1,1.1-1.1s1.1,0.5,1.1,1.1S132,3.2,131.4,3.2z M131.4,1.2
				c-0.5,0-0.9,0.4-0.9,0.9s0.4,0.9,0.9,0.9s0.9-0.4,0.9-0.9C132.3,1.6,131.9,1.2,131.4,1.2z M131.7,2.7l-0.3-0.5h-0.2v0.5H131V1.5
				h0.4c0.2,0,0.4,0.2,0.4,0.4s-0.1,0.3-0.3,0.3L131.7,2.7L131.7,2.7z M131.5,1.7h-0.2v0.4h0.2c0.1,0,0.2-0.1,0.2-0.2
				C131.7,1.7,131.6,1.7,131.5,1.7z"/>
		</g>
		<path class="st0" d="M9.9,5.1c0,0.5,0,1,0.3,1.5C10.5,7,11,7.2,11.5,7.2s1-0.2,1.3-0.6s0.3-1,0.3-1.5V1.2h0.7v4.1
			c0,0.7-0.1,1.3-0.6,1.8s-1.1,0.7-1.8,0.7c-0.6,0-1.2-0.2-1.7-0.7S9.1,6,9.1,5.3V1.2h0.7L9.9,5.1L9.9,5.1z"/>
		<path class="st0" d="M18,7.7h-0.7V1.9h-1.6V1.2h3.9v0.7H18V7.7z"/>
		<path class="st0" d="M27.9,4.5c0,1.9-1.5,3.4-3.4,3.4s-3.4-1.5-3.4-3.4s1.5-3.4,3.4-3.4C26.3,1.1,27.9,2.6,27.9,4.5z M21.8,4.4
			c0,1.5,1.2,2.7,2.7,2.7s2.7-1.2,2.7-2.7S26,1.7,24.5,1.7C23,1.7,21.8,3,21.8,4.4z"/>
		<path class="st0" d="M52.7,7.7H52V1.2h1c0.6,0,1.1,0,1.6,0.3s0.7,0.9,0.7,1.5c0,0.5-0.2,1.1-0.6,1.4c-0.4,0.4-1,0.4-1.5,0.4h-0.5
			V7.7z M52.7,4.2h0.5C54,4.2,54.7,4,54.7,3c0-1.1-0.9-1.1-1.7-1.1h-0.3V4.2z"/>
		<path class="st0" d="M61.5,4.2v-3h0.7v6.5h-0.7V4.9h-3.3v2.8h-0.7V1.2h0.7v3H61.5z"/>
		<path class="st0" d="M41.5,7.7h0.9l-1.8-3c0.2-0.1,0.3-0.2,0.5-0.3c0.4-0.3,0.6-0.9,0.6-1.4c0-0.6-0.3-1.1-0.7-1.5
			c-0.5-0.3-1.1-0.3-1.6-0.3h-1.1v6.5H39V4.9V4.2V1.9h0.3C40.1,1.9,41,2,41,3c0,0.9-0.7,1.2-1.4,1.2L41.5,7.7z"/>
		<path class="st0" d="M36.1,4.4h-2.7c0.3,0.2,0.5,0.4,0.7,0.7h1.3c0,0.5-0.2,1-0.6,1.4c-0.2,0.2-0.4,0.3-0.7,0.4s-0.7,0.2-1,0.2
			c-0.7,0-1.4-0.4-1.9-0.8c-0.4-0.5-0.7-1.1-0.8-1.7c0-0.1,0-0.1,0-0.2c0-0.2,0-0.4,0.1-0.6c0.3-1.2,1.3-2.1,2.6-2.1
			c1,0,1.6,0.5,2.2,1.2l0.5-0.5C35,1.6,34.2,1.1,33,1.1c-1.8,0-3.3,1.4-3.4,3.2c0,0.1,0,0.2,0,0.2c0,0.2,0,0.4,0,0.6
			c0.3,1.6,1.7,2.8,3.3,2.8c0.3,0,0.7-0.1,1-0.2s0.5-0.2,0.8-0.4c0.2-0.2,0.5-0.3,0.7-0.6C36,6,36.1,5.3,36.1,4.4z"/>
		<path class="st0" d="M1.5,7.7h0.8l1-2.3c1.1,0.3,2,0.9,2.8,1.6c0.2,0.2,0.4,0.4,0.6,0.7l0,0h0.8l0,0l-3-6.8L2.9,4.6
			c-0.2,0-0.5-0.1-0.7-0.1C2.3,4.8,2.5,5,2.6,5.3L1.5,7.7z M3.5,4.8l1-2.2l1.4,3.5C5.2,5.5,4.4,5.1,3.5,4.8z"/>
		<path class="st0" d="M47.1,0.9l-1.7,3.8c-0.2,0-0.5-0.1-0.7-0.1c0.2,0.2,0.3,0.5,0.4,0.7l0,0l0,0L44,7.7h0.4h0.4l1-2.3
			c1.1,0.3,2,0.9,2.8,1.6c0.2,0.2,0.4,0.4,0.6,0.7l0,0H50l0,0L47.1,0.9z M46.1,4.8l1-2.2l1.5,3.5C47.9,5.5,47,5.1,46.1,4.8z"/>
	</g>
	<g>
		<path class="st0" d="M60.7,15.1c0,1.4-1.1,2.5-2.5,2.5s-2.5-1.1-2.5-2.5s1.1-2.5,2.5-2.5C59.6,12.6,60.7,13.7,60.7,15.1z
			 M60.1,15.1c0-1.1-0.8-1.9-1.9-1.9c-1.1,0-1.9,0.9-1.9,1.9c0,1.1,0.9,1.9,1.9,1.9C59.2,17,60.1,16.2,60.1,15.1z"/>
		<path class="st0" d="M64.7,17.5h-0.6v-4.2H63v-0.5h2.9v0.5h-1.1v4.2H64.7z"/>
		<path class="st0" d="M68.4,12.7H71v0.5h-2v1.3h2V15h-2v1.8h2v0.5h-2.6V12.7z"/>
		<path class="st0" d="M74.5,16.9H76v0.5h-2.1v-4.8h0.6V16.9z"/>
		<path class="st0" d="M80.6,13.6c-0.2-0.3-0.4-0.5-0.8-0.5S79,13.4,79,13.8s0.4,0.6,0.7,0.7l0.3,0.1c0.7,0.3,1.2,0.6,1.2,1.4
			c0,0.9-0.7,1.5-1.5,1.5s-1.4-0.6-1.5-1.3l0.6-0.1c0,0.5,0.4,0.9,0.9,0.9s0.9-0.4,0.9-0.9s-0.4-0.7-0.8-0.9L79.5,15
			c-0.5-0.2-1-0.5-1-1.2c0-0.8,0.7-1.2,1.4-1.2c0.5,0,1,0.3,1.2,0.7L80.6,13.6z"/>
		<polygon class="st0" points="52.4,12.7 52.4,14.8 50.1,14.8 50.1,12.7 49.5,12.7 49.5,17.5 50.1,17.5 50.1,15.4 52.4,15.4 
			52.4,17.5 53,17.5 53,12.7 		"/>
	</g>
</g>
</svg>
