<svg width="258" height="82" viewBox="0 0 258 82" version="1.1" xmlns="http://www.w3.org/2000/svg" xmlns:xlink="http://www.w3.org/1999/xlink">
<title>Group</title>
<desc>Created using Figma</desc>
<g id="Canvas" transform="translate(16087 1026)">
<g id="Group">
<g id="Group">
<g id="Vector">
<use xlink:href="#path0_fill" transform="translate(-16086 -1024.03)" fill="#FFFFFF"/>
</g>
<g id="Vector">
<use xlink:href="#path1_fill" transform="translate(-16005.4 -1024.24)" fill="#FFFFFF"/>
</g>
<g id="Group">
<g id="Vector">
<use xlink:href="#path2_fill" transform="translate(-16025.6 -1024.03)" fill="#FFFFFF"/>
</g>
</g>
<g id="Vector">
<use xlink:href="#path3_fill" transform="translate(-15880.4 -1024.03)" fill="#FFFFFF"/>
</g>
<g id="Vector">
<use xlink:href="#path4_fill" transform="translate(-15951.7 -1025.65)" fill="#FFFFFF"/>
</g>
</g>
</g>
</g>
<defs>
<path id="path0_fill" d="M 0 2.40803e-08L 24.644 2.40803e-08C 30.704 2.40803e-08 35.754 0.808 39.794 2.222C 43.834 3.636 46.864 5.454 49.086 7.878C 51.308 10.1 52.924 12.726 53.732 15.554C 54.54 18.382 55.146 21.21 55.146 23.836C 55.146 28.886 54.136 33.128 52.318 36.562C 50.5 39.996 47.47 42.824 43.026 45.248L 58.984 78.578L 41.41 78.578L 28.482 48.884L 15.554 48.884L 15.554 78.376L 0 78.376L 0 2.40803e-08ZM 25.654 35.148C 28.28 35.148 30.3 34.946 32.118 34.34C 33.734 33.734 35.148 32.926 36.158 32.118C 37.168 31.108 37.774 29.896 38.178 28.482C 38.582 27.068 38.784 25.654 38.784 23.836C 38.784 22.422 38.582 21.21 38.178 19.796C 37.572 18.584 36.764 17.574 35.754 16.564C 34.744 15.554 33.128 14.746 31.31 14.342C 29.492 13.736 27.068 13.534 24.24 13.534L 15.554 13.534L 15.554 35.35L 25.654 35.35L 25.654 35.148Z"/>
<path id="path1_fill" d="M 34.34 -2.40803e-08L 3.08227e-06 78.376L 17.776 78.376L 52.318 -2.40803e-08L 34.34 -2.40803e-08Z"/>
<path id="path2_fill" d="M 17.978 2.40803e-08L -7.70568e-07 2.40803e-08L 20.2 42.218L 37.572 42.218L 17.978 2.40803e-08Z"/>
<path id="path3_fill" d="M 6.16455e-06 78.174L 6.16455e-06 2.40803e-08L 49.49 2.40803e-08L 49.49 14.342L 15.352 14.342L 15.352 32.118L 47.47 32.118L 47.47 45.652L 15.352 45.652L 15.352 63.63L 50.5 63.63L 50.5 77.972L 6.16455e-06 77.972L 6.16455e-06 78.174Z"/>
<path id="path4_fill" d="M 37.774 34.34L 26.866 32.32C 21.21 31.31 18.382 27.876 18.382 23.432C 18.382 18.18 23.23 13.534 30.502 13.534C 40.4 13.534 43.834 20.2 44.642 24.442L 58.782 24.442C 58.984 22.826 57.57 17.978 57.57 17.978C 55.348 9.69599 47.874 0 30.502 0C 15.756 0 3.23199 10.504 3.23199 24.442C 3.23199 36.158 11.312 44.238 23.634 46.864L 34.542 49.086C 40.602 50.298 44.036 53.732 44.036 58.378C 44.036 63.832 39.592 67.872 31.31 67.872C 20.402 67.872 15.15 61.206 14.342 53.53L 0 53.53C 0 55.348 0.201997 57.57 0.201997 57.57L 0.201997 57.772C 2.02 68.68 11.11 81.4059 31.31 81.4059C 49.49 81.4059 59.59 69.286 59.59 57.368C 59.59 46.258 51.914 36.966 37.774 34.34Z"/>
</defs>
</svg>
