<?xml version="1.0" encoding="utf-8"?>
<!-- Generator: Adobe Illustrator 16.0.3, SVG Export Plug-In . SVG Version: 6.00 Build 0)  -->
<!DOCTYPE svg PUBLIC "-//W3C//DTD SVG 1.1//EN" "http://www.w3.org/Graphics/SVG/1.1/DTD/svg11.dtd">
<svg version="1.1" id="Layer_1" xmlns="http://www.w3.org/2000/svg" xmlns:xlink="http://www.w3.org/1999/xlink" x="0px" y="0px"
	 width="24px" height="24px" viewBox="0 0 24 24" enable-background="new 0 0 24 24" xml:space="preserve">
<g>
	<path fill="#343433" d="M16.296,3.412l-2.229-0.003c-2.504,0-4.122,1.66-4.122,4.229v1.95h-2.24c-0.193,0-0.351,0.157-0.351,0.351
		v2.825c0,0.193,0.157,0.351,0.351,0.351h2.24v7.128c0,0.193,0.157,0.351,0.351,0.351h2.924c0.193,0,0.35-0.157,0.35-0.351v-7.128
		h2.62c0.193,0,0.351-0.157,0.351-0.351l0.001-2.825c0-0.093-0.037-0.182-0.103-0.248c-0.065-0.065-0.155-0.103-0.248-0.103h-2.621
		V7.934c0-0.794,0.189-1.198,1.225-1.198l1.501,0c0.193,0,0.351-0.157,0.351-0.351V3.762C16.646,3.569,16.488,3.412,16.296,3.412z"
		/>
</g>
</svg>
